<svg xmlns="http://www.w3.org/2000/svg" viewBox="0 0 100 100">
  <!-- Background circle -->
  <circle cx="50" cy="50" r="48" fill="#2d5016" stroke="#5a8f3c" stroke-width="3"/>
  
  <!-- Laboratory flask/beaker -->
  <g transform="translate(50, 55)">
    <!-- Flask body -->
    <path d="M -12,-25 L -12,-10 L -18,10 Q -18,15 -10,18 L 10,18 Q 18,15 18,10 L 12,-10 L 12,-25 Z" 
          fill="#e8f5e9" stroke="#2F2F2F" stroke-width="2"/>
    
    <!-- Liquid inside -->
    <path d="M -11,-10 L -17,8 Q -17,12 -10,14 L 10,14 Q 17,12 17,8 L 11,-10 Z" 
          fill="#5a8f3c" opacity="0.7"/>
    
    <!-- Flask neck -->
    <rect x="-8" y="-30" width="16" height="5" fill="#e8f5e9" stroke="#2F2F2F" stroke-width="2"/>
    
    <!-- Flask opening -->
    <ellipse cx="0" cy="-30" rx="8" ry="2" fill="#c8e6c9" stroke="#2F2F2F" stroke-width="1"/>
    
    <!-- Bubbles rising -->
    <circle cx="-5" cy="-5" r="2" fill="#ffffff" opacity="0.8"/>
    <circle cx="3" cy="0" r="1.5" fill="#ffffff" opacity="0.8"/>
    <circle cx="-2" cy="3" r="1.2" fill="#ffffff" opacity="0.8"/>
  </g>
  
  <!-- Atom symbol (top left) -->
  <g transform="translate(25, 25)">
    <!-- Nucleus -->
    <circle cx="0" cy="0" r="3" fill="#DAA520"/>
    <!-- Electron orbits -->
    <ellipse cx="0" cy="0" rx="10" ry="4" fill="none" stroke="#ffffff" stroke-width="1.5" opacity="0.9"/>
    <ellipse cx="0" cy="0" rx="10" ry="4" fill="none" stroke="#ffffff" stroke-width="1.5" opacity="0.9" transform="rotate(60)"/>
    <ellipse cx="0" cy="0" rx="10" ry="4" fill="none" stroke="#ffffff" stroke-width="1.5" opacity="0.9" transform="rotate(120)"/>
    <!-- Electrons -->
    <circle cx="10" cy="0" r="2" fill="#ffffff"/>
    <circle cx="-5" cy="8.66" r="2" fill="#ffffff"/>
    <circle cx="-5" cy="-8.66" r="2" fill="#ffffff"/>
  </g>
  
  <!-- Microscope (top right) -->
  <g transform="translate(75, 28)">
    <path d="M -5,-8 L -5,8 M -8,8 L -2,8" stroke="#ffffff" stroke-width="2" stroke-linecap="round"/>
    <circle cx="-5" cy="-8" r="3" fill="#ffffff"/>
    <path d="M -5,-8 L 2,-3" stroke="#ffffff" stroke-width="2"/>
    <circle cx="2" cy="-3" r="2.5" fill="#DAA520"/>
  </g>
</svg>

